<svg width="12" height="16" viewBox="0 0 12 16" fill="none" xmlns="http://www.w3.org/2000/svg">
<path d="M6.75 1C6.75 0.585786 6.41421 0.25 6 0.25C5.58579 0.25 5.25 0.585786 5.25 1L6.75 1ZM5.46967 15.5303C5.76256 15.8232 6.23744 15.8232 6.53033 15.5303L11.3033 10.7574C11.5962 10.4645 11.5962 9.98959 11.3033 9.6967C11.0104 9.40381 10.5355 9.40381 10.2426 9.6967L6 13.9393L1.75736 9.6967C1.46447 9.40381 0.989593 9.40381 0.6967 9.6967C0.403806 9.98959 0.403806 10.4645 0.6967 10.7574L5.46967 15.5303ZM5.25 1L5.25 15L6.75 15L6.75 1L5.25 1Z" fill="#F5F5F5"/>
</svg>
