<svg width="16" height="16" viewBox="0 0 16 16" fill="none" xmlns="http://www.w3.org/2000/svg">
<path d="M8.70711 8.70711C8.31658 9.09763 7.68342 9.09763 7.29289 8.70711L0.928933 2.34315C0.538408 1.95262 0.538408 1.31946 0.928933 0.928932C1.31946 0.538408 1.95262 0.538408 2.34315 0.928932L8 6.58579L13.6569 0.928932C14.0474 0.538408 14.6805 0.538408 15.0711 0.928932C15.4616 1.31946 15.4616 1.95262 15.0711 2.34315L8.70711 8.70711ZM8 7L9 7L9 8L8 8L7 8L7 7L8 7Z" fill="#333333"/>
<path d="M8.70711 15.7071C8.31658 16.0976 7.68342 16.0976 7.29289 15.7071L0.928933 9.34315C0.538408 8.95262 0.538408 8.31946 0.928933 7.92893C1.31946 7.53841 1.95262 7.53841 2.34315 7.92893L8 13.5858L13.6569 7.92893C14.0474 7.53841 14.6805 7.53841 15.0711 7.92893C15.4616 8.31946 15.4616 8.95262 15.0711 9.34315L8.70711 15.7071ZM8 14L9 14L9 15L8 15L7 15L7 14L8 14Z" fill="#333333"/>
</svg>
